<?xml version="1.0" encoding="UTF-8" standalone="no"?>
<svg
   xml:space="preserve"
   width="16"
   height="16"
   version="1.0"
   viewBox="0 0 2.4 2.4"
   id="svg2"
   sodipodi:docname="AudioComponentNode.svg"
   inkscape:version="1.4.4 (dcaf3e7d9e, 2026-05-05)"
   xmlns:inkscape="http://www.inkscape.org/namespaces/inkscape"
   xmlns:sodipodi="http://sodipodi.sourceforge.net/DTD/sodipodi-0.dtd"
   xmlns="http://www.w3.org/2000/svg"
   xmlns:svg="http://www.w3.org/2000/svg"><defs
     id="defs2" /><sodipodi:namedview
     id="namedview2"
     pagecolor="#ffffff"
     bordercolor="#000000"
     borderopacity="0.25"
     inkscape:showpageshadow="2"
     inkscape:pageopacity="0.0"
     inkscape:pagecheckerboard="0"
     inkscape:deskcolor="#d1d1d1"
     inkscape:zoom="32"
     inkscape:cx="12.046875"
     inkscape:cy="9.53125"
     inkscape:window-width="1920"
     inkscape:window-height="1014"
     inkscape:window-x="0"
     inkscape:window-y="0"
     inkscape:window-maximized="1"
     inkscape:current-layer="svg2" /><path
     fill="#e0e0e0"
     d="M1.252.15a.1.1 0 0 0-.082.03L.6.75H.318C.225.75.15.817.15.9v.6c0 .083.075.15.168.15H.6l.57.57c.066.067.18.02.18-.074V.256A.106.106 0 0 0 1.252.15"
     paint-order="markers stroke fill"
     id="path1" /><path
     fill="none"
     stroke="#e0e0e0"
     stroke-linecap="round"
     stroke-linejoin="round"
     stroke-width=".165"
     d="M1.575.675c.45.525 0 1.05 0 1.05m.3-1.35c.675.825 0 1.65 0 1.65"
     paint-order="markers stroke fill"
     id="path2" /><path
     style="fill:#ff9923;stroke-width:0.019802"
     d="M 8.1089109,14.973486 C 8.0653465,14.959056 7.9985149,14.931465 7.960396,14.912173 7.9222772,14.89288 7.0178218,14.005253 5.950495,12.939668 L 4.009901,11.00224 2.970297,10.994712 C 1.8247731,10.986417 1.8357919,10.987506 1.5674219,10.856038 1.4111692,10.779493 1.2013482,10.57988 1.1239717,10.434161 1.006095,10.212171 1.009901,10.293387 1.009901,8 1.009901,5.7066135 1.006095,5.7878289 1.1239717,5.5658388 1.2014469,5.4199345 1.4103653,5.2203251 1.5650401,5.1444242 1.8334995,5.0126873 1.8243916,5.0135893 2.970297,5.0052568 L 4.009901,4.9976972 5.960396,3.0514549 C 8.1504612,0.86616482 7.984641,1.0114957 8.2871287,1.0122203 c 0.1305901,3.128e-4 0.1800586,0.010139 0.2816311,0.055944 0.1446683,0.065239 0.3025091,0.2207307 0.3679905,0.3625134 l 0.043448,0.094075 V 8 14.475248 l -0.052182,0.111287 c -0.1149582,0.245171 -0.3335449,0.394002 -0.5969303,0.406437 -0.084195,0.004 -0.1755291,-0.004 -0.2221752,-0.01949 z"
     id="path3"
     transform="scale(0.15)" /><path
     style="fill:#ff9923;stroke-width:0.019802"
     d="m 10.402846,12.028576 c -0.274777,-0.05334 -0.4620665,-0.298645 -0.4372196,-0.57266 0.012669,-0.139717 0.035888,-0.184987 0.2314156,-0.451195 0.580247,-0.789994 0.969237,-1.7599667 1.069989,-2.6680873 0.02902,-0.2615438 0.0244,-0.7268392 -0.0099,-0.9940353 C 11.149971,6.5068788 10.801108,5.7326656 10.188188,4.970297 10.011605,4.7506567 9.978632,4.6875129 9.9656264,4.5440843 9.9222978,4.0662492 10.516501,3.7726718 10.862626,4.1009046 c 0.177896,0.1686994 0.58983,0.7449758 0.808076,1.1304609 1.02448,1.8095212 0.920492,3.9479541 -0.289184,5.9468525 -0.158384,0.261718 -0.404875,0.606195 -0.506433,0.707753 -0.119526,0.119526 -0.304058,0.175251 -0.472239,0.142605 z"
     id="path4"
     transform="scale(0.15)" /><path
     style="fill:#ff9923;stroke-width:0.019802"
     d="m 12.402846,14.028576 c -0.312772,-0.06071 -0.506606,-0.371051 -0.422004,-0.675651 0.01112,-0.04005 0.04894,-0.113812 0.08405,-0.163915 0.463491,-0.661553 0.649042,-0.964259 0.907861,-1.481077 0.506229,-1.010851 0.808809,-2.00269 0.940947,-3.0843682 0.04871,-0.3987062 0.04873,-1.2440266 4.9e-5,-1.6433668 C 13.737912,5.5378372 13.151299,4.1795265 12.182392,2.9712248 12.022736,2.7721217 11.978372,2.6846505 11.965599,2.5437782 11.92287,2.0725586 12.502968,1.7776124 12.853641,2.0922605 c 0.102809,0.092248 0.451124,0.5534249 0.693069,0.9176405 1.32276,1.9912382 1.773303,4.2067675 1.322827,6.5049505 -0.214927,1.0964875 -0.676023,2.2956435 -1.275377,3.3168315 -0.30919,0.526803 -0.667811,1.034487 -0.786004,1.112711 -0.123294,0.0816 -0.265958,0.111232 -0.40531,0.08418 z"
     id="path5"
     transform="scale(0.15)" /></svg>
