<?xml version="1.0" encoding="UTF-8" standalone="no"?>
<svg
   width="16"
   height="16"
   fill="none"
   viewBox="0 0 16 16"
   version="1.1"
   id="svg1"
   sodipodi:docname="DungeonComponent3d.svg"
   inkscape:version="1.4.4 (dcaf3e7d9e, 2026-05-05)"
   xmlns:inkscape="http://www.inkscape.org/namespaces/inkscape"
   xmlns:sodipodi="http://sodipodi.sourceforge.net/DTD/sodipodi-0.dtd"
   xmlns:xlink="http://www.w3.org/1999/xlink"
   xmlns="http://www.w3.org/2000/svg"
   xmlns:svg="http://www.w3.org/2000/svg">
  <defs
     id="defs1">
    <linearGradient
       id="linearGradient5"
       inkscape:collect="always">
      <stop
         style="stop-color:#fc5c5c;stop-opacity:1;"
         offset="0.09478401"
         id="stop5" />
      <stop
         style="stop-color:#ff9923;stop-opacity:1;"
         offset="0.8955844"
         id="stop6" />
    </linearGradient>
    <linearGradient
       inkscape:collect="always"
       xlink:href="#linearGradient5"
       id="linearGradient6"
       x1="8.000001"
       y1="0.99999857"
       x2="8.000001"
       y2="14.999998"
       gradientUnits="userSpaceOnUse" />
  </defs>
  <sodipodi:namedview
     id="namedview1"
     pagecolor="#ffffff"
     bordercolor="#000000"
     borderopacity="0.25"
     inkscape:showpageshadow="2"
     inkscape:pageopacity="0.0"
     inkscape:pagecheckerboard="0"
     inkscape:deskcolor="#d1d1d1"
     inkscape:zoom="32"
     inkscape:cx="3.609375"
     inkscape:cy="7.46875"
     inkscape:window-width="1920"
     inkscape:window-height="1014"
     inkscape:window-x="0"
     inkscape:window-y="0"
     inkscape:window-maximized="1"
     inkscape:current-layer="svg1" />
  <g
     fill="#fc7f7f"
     id="g1"
     style="fill:url(#linearGradient6);fill-opacity:1">
    <path
       d="M4 11v4H2a1 1 0 0 1-1-1v-3zM8 10H1V6h7zM15 10H9V6h6zM4 5H1V2a1 1 0 0 1 1-1h2zM11 5H5V1h6zM14 1a1 1 0 0 1 1 1v3h-3V1zM11 11v4H5v-4zM15 14a1 1 0 0 1-1 1h-2v-4h3z"
       id="path1"
       style="fill:url(#linearGradient6);fill-opacity:1" />
  </g>
</svg>
