<?xml version="1.0" encoding="UTF-8" standalone="no"?>
<svg
   width="16"
   height="16"
   version="1.1"
   id="svg1"
   sodipodi:docname="HealthComponentNode.svg"
   inkscape:version="1.4.4 (dcaf3e7d9e, 2026-05-05)"
   xmlns:inkscape="http://www.inkscape.org/namespaces/inkscape"
   xmlns:sodipodi="http://sodipodi.sourceforge.net/DTD/sodipodi-0.dtd"
   xmlns="http://www.w3.org/2000/svg"
   xmlns:svg="http://www.w3.org/2000/svg">
  <defs
     id="defs1" />
  <sodipodi:namedview
     id="namedview1"
     pagecolor="#ffffff"
     bordercolor="#000000"
     borderopacity="0.25"
     inkscape:showpageshadow="2"
     inkscape:pageopacity="0.0"
     inkscape:pagecheckerboard="0"
     inkscape:deskcolor="#d1d1d1"
     inkscape:zoom="50.5"
     inkscape:cx="7.990099"
     inkscape:cy="8"
     inkscape:window-width="1920"
     inkscape:window-height="1014"
     inkscape:window-x="0"
     inkscape:window-y="0"
     inkscape:window-maximized="1"
     inkscape:current-layer="svg1" />
  <path
     fill="#fc7f7f"
     d="M2.781 9.155C2.72 9.102 1 7.531 1 5.656 1 3.367 2.398 2 4.734 2 6.102 2 7.383 3.39 8 4c.617-.61 1.898-2 3.266-2C13.602 2 15 3.367 15 5.656c0 1.875-1.719 3.446-1.79 3.516l-4.866 4.687a.485.485 0 0 1-.688 0z"
     id="path1" />
  <path
     style="fill:#ff9923;stroke-width:0.019802"
     d="m 7.8514851,13.967264 c -0.032673,-0.012 -0.089748,-0.04447 -0.1268338,-0.07215 C 7.6584519,13.845701 3.3705529,9.7178673 2.7758355,9.1310339 1.8453622,8.2128956 1.2730686,7.2563711 1.0781016,6.2934626 0.92356878,5.5302515 1.0535098,4.5223014 1.39681,3.8212477 1.9622169,2.6666293 3.1195129,2.0248829 4.6435644,2.02085 5.0133675,2.0198714 5.053378,2.0233974 5.2475248,2.0740747 6.0015846,2.270904 6.6775212,2.7176941 7.6191006,3.6416726 L 8.0005774,4.0160184 8.3517739,3.6708005 c 0.967397,-0.9509287 1.6389085,-1.3981689 2.3954531,-1.5954198 0.20045,-0.052263 0.2368,-0.055501 0.609209,-0.054284 1.908033,0.00624 3.200158,0.9915968 3.542778,2.7016752 0.108183,0.539959 0.116385,1.1079174 0.02268,1.5706903 -0.173642,0.8575909 -0.668934,1.7478544 -1.430689,2.5715944 -0.342995,0.3709052 -5.1998674,5.0345664 -5.2864128,5.0761144 -0.090377,0.04339 -0.2701013,0.05666 -0.3533111,0.02609 z"
     id="path2" />
</svg>
