<?xml version="1.0" encoding="UTF-8" standalone="no"?>
<svg
   width="16"
   height="16"
   fill="none"
   viewBox="0 0 16 16"
   version="1.1"
   id="svg3"
   sodipodi:docname="save_component_node.svg"
   inkscape:version="1.4.4 (dcaf3e7d9e, 2026-05-05)"
   xmlns:inkscape="http://www.inkscape.org/namespaces/inkscape"
   xmlns:sodipodi="http://sodipodi.sourceforge.net/DTD/sodipodi-0.dtd"
   xmlns="http://www.w3.org/2000/svg"
   xmlns:svg="http://www.w3.org/2000/svg">
  <defs
     id="defs3" />
  <sodipodi:namedview
     id="namedview3"
     pagecolor="#ffffff"
     bordercolor="#000000"
     borderopacity="0.25"
     inkscape:showpageshadow="2"
     inkscape:pageopacity="0.0"
     inkscape:pagecheckerboard="0"
     inkscape:deskcolor="#d1d1d1"
     inkscape:zoom="50.5"
     inkscape:cx="7.990099"
     inkscape:cy="8"
     inkscape:window-width="1920"
     inkscape:window-height="1014"
     inkscape:window-x="0"
     inkscape:window-y="0"
     inkscape:window-maximized="1"
     inkscape:current-layer="svg3" />
  <g
     fill="#fc7f7f"
     id="g3">
    <path
       d="M7 6H5V3h2z"
       id="path1" />
    <path
       d="M11.586 1a1 1 0 0 1 .707.293l2.414 2.414a1 1 0 0 1 .293.707V13a2 2 0 0 1-1.796 1.99L13 15v-4a2 2 0 0 0-2-2H5a2 2 0 0 0-2 2v4l-.204-.01A2 2 0 0 1 1 13V3a2 2 0 0 1 2-2zM5 2a1 1 0 0 0-1 1v3a1 1 0 0 0 1 1h6a1 1 0 0 0 1-1V3a1 1 0 0 0-1-1z"
       id="path2" />
    <path
       d="M11 10a1 1 0 0 1 1 1v4H4v-4a1 1 0 0 1 1-1z"
       id="path3" />
  </g>
  <path
     style="fill:#ff9923;stroke-width:0.019802"
     d="M 2.5579306,14.939651 C 2.1463997,14.84676 1.757561,14.607868 1.4788786,14.276711 1.2810903,14.04168 1.1519455,13.789391 1.0635478,13.465347 L 1.0203328,13.306931 1.0148619,8.0795287 C 1.0100373,3.4695378 1.0129552,2.831474 1.0395669,2.6772671 1.1132076,2.2505418 1.2891564,1.9091077 1.5935839,1.6021798 1.9481813,1.24467 2.3492402,1.0614377 2.8712871,1.0184339 c 0.1628422,-0.013414 1.7243905,-0.018358 4.5643565,-0.01445 4.1327344,0.00569 4.3214764,0.0075 4.4257424,0.042433 0.252664,0.08466 0.269592,0.09984 1.635036,1.4661921 1.108317,1.1090547 1.317854,1.3276166 1.370792,1.4298283 0.130601,0.2521672 0.12227,-0.073542 0.122592,4.7925929 2.57e-4,3.8676858 -0.0035,4.4397328 -0.02985,4.5910278 -0.07416,0.425284 -0.249988,0.765713 -0.553544,1.071762 -0.338854,0.341637 -0.773497,0.548119 -1.213347,0.576414 l -0.183168,0.01178 V 12.91729 c 0,-1.81444 -0.0039,-2.091671 -0.03199,-2.255385 C 12.844163,9.8815758 12.297923,9.2826147 11.512555,9.055123 L 11.356436,9.009901 H 8 4.6435644 L 4.487445,9.055123 C 3.8198842,9.2484905 3.3316432,9.7006768 3.1037547,10.336634 2.9905683,10.652497 2.990099,10.663141 2.990099,12.914381 v 2.065817 l -0.1336634,-0.0017 c -0.073515,-9.19e-4 -0.2078421,-0.01841 -0.298505,-0.03888 z M 11.247525,6.9785091 c 0.337591,-0.077751 0.653233,-0.3933929 0.730984,-0.7309843 0.01327,-0.057627 0.02069,-0.6777832 0.02101,-1.7553398 C 11.999983,2.8852842 11.9986,2.8214219 11.960688,2.6986773 11.939067,2.6286752 11.886743,2.5185782 11.844413,2.4540172 11.711746,2.2516755 11.562094,2.1341407 11.326703,2.0474124 L 11.19802,2 H 8 4.8019802 L 4.6696901,2.045712 C 4.3756812,2.1473046 4.1314869,2.4002487 4.0393117,2.6986773 4.0013869,2.8214637 4.0000147,2.8854354 4.0004176,4.5119869 l 4.176e-4,1.6860329 0.045564,0.1287129 c 0.1131774,0.3197097 0.3633907,0.5564724 0.6800905,0.6435309 0.077098,0.021194 0.7002216,0.026441 3.2636089,0.027482 2.1204084,8.61e-4 3.1977894,-0.0055 3.2574264,-0.019236 z"
     id="path4" />
  <path
     style="fill:#ff9923;stroke-width:0.019802"
     d="M 5.009901,4.4950495 V 3 H 6 6.990099 V 4.4950495 5.990099 H 6 5.009901 Z"
     id="path5" />
  <path
     style="fill:#ff9923;stroke-width:0.019802"
     d="m 4.0043749,12.915842 0.00607,-2.084159 0.043787,-0.128713 c 0.1115482,-0.327898 0.3909281,-0.585037 0.7198868,-0.662578 0.1915104,-0.045143 6.2602503,-0.045143 6.4517603,0 0.331653,0.07818 0.597691,0.323544 0.718394,0.662578 l 0.04583,0.128713 0.0058,2.084159 L 12.001697,15 H 8 3.9983034 Z"
     id="path6" />
</svg>
