<?xml version="1.0" encoding="UTF-8" standalone="no"?>
<svg
   width="16"
   height="16"
   version="1.1"
   id="svg1"
   sodipodi:docname="StateNode.svg"
   inkscape:version="1.4.4 (dcaf3e7d9e, 2026-05-05)"
   xmlns:inkscape="http://www.inkscape.org/namespaces/inkscape"
   xmlns:sodipodi="http://sodipodi.sourceforge.net/DTD/sodipodi-0.dtd"
   xmlns="http://www.w3.org/2000/svg"
   xmlns:svg="http://www.w3.org/2000/svg">
  <defs
     id="defs1" />
  <sodipodi:namedview
     id="namedview1"
     pagecolor="#ffffff"
     bordercolor="#000000"
     borderopacity="0.25"
     inkscape:showpageshadow="2"
     inkscape:pageopacity="0.0"
     inkscape:pagecheckerboard="0"
     inkscape:deskcolor="#d1d1d1"
     inkscape:zoom="50.5"
     inkscape:cx="7.990099"
     inkscape:cy="8"
     inkscape:window-width="1920"
     inkscape:window-height="1014"
     inkscape:window-x="0"
     inkscape:window-y="0"
     inkscape:window-maximized="1"
     inkscape:current-layer="svg1" />
  <circle
     cx="8"
     cy="8"
     r="4"
     fill="#ff5f5f"
     id="circle1" />
  <path
     style="fill:#ff9923;stroke-width:0.019802"
     d="M 7.5247525,11.960053 C 6.1766931,11.793096 5.0038596,10.956663 4.415438,9.7425743 4.1376954,9.1695085 4.0187598,8.6470343 4.0187598,8 4.0187598,7.3529657 4.1376954,6.8304915 4.415438,6.2574257 4.6829988,5.705368 5.1105338,5.1827217 5.5841584,4.8287064 6.9197485,3.8304067 8.6645075,3.7402419 10.076731,4.5965414 c 1.007448,0.6108647 1.698998,1.6613251 1.87305,2.8451531 0.04157,0.2827542 0.04157,0.8338568 0,1.116611 -0.127876,0.8697573 -0.517108,1.6446805 -1.137154,2.2639665 -0.8615506,0.860493 -2.0911375,1.285997 -3.2878745,1.137781 z"
     id="path1" />
</svg>
