<?xml version="1.0" encoding="UTF-8" standalone="no"?>
<svg
   width="16"
   height="16"
   version="1.1"
   id="svg1"
   sodipodi:docname="StateMachineNode.svg"
   inkscape:version="1.4.4 (dcaf3e7d9e, 2026-05-05)"
   xmlns:inkscape="http://www.inkscape.org/namespaces/inkscape"
   xmlns:sodipodi="http://sodipodi.sourceforge.net/DTD/sodipodi-0.dtd"
   xmlns="http://www.w3.org/2000/svg"
   xmlns:svg="http://www.w3.org/2000/svg">
  <defs
     id="defs1" />
  <sodipodi:namedview
     id="namedview1"
     pagecolor="#ffffff"
     bordercolor="#000000"
     borderopacity="0.25"
     inkscape:showpageshadow="2"
     inkscape:pageopacity="0.0"
     inkscape:pagecheckerboard="0"
     inkscape:deskcolor="#d1d1d1"
     inkscape:zoom="50.5"
     inkscape:cx="7.990099"
     inkscape:cy="8"
     inkscape:window-width="1920"
     inkscape:window-height="1014"
     inkscape:window-x="0"
     inkscape:window-y="0"
     inkscape:window-maximized="1"
     inkscape:current-layer="svg1" />
  <path
     fill="#8eef97"
     d="M3 1a2 2 0 0 0-2 2v10a2 2 0 0 0 2 2h10a2 2 0 0 0 2-2V3a2 2 0 0 0-2-2zm0 2h10v10H3z"
     id="path1" />
  <path
     style="fill:#ff9923;stroke-width:0.019802;fill-opacity:1"
     d="M 2.8091504,14.979247 C 1.9935586,14.906623 1.2978813,14.313586 1.0729055,13.499167 L 1.019802,13.306931 V 8 2.6930693 L 1.0729055,2.5008331 C 1.2344647,1.9159843 1.6247492,1.4504142 2.1659637,1.1969248 2.384056,1.0947766 2.5820368,1.0428547 2.8415842,1.0197386 c 0.2950609,-0.026279 10.0217708,-0.026279 10.3168318,0 0.259547,0.023116 0.457528,0.075038 0.67562,0.1771862 0.54004,0.252939 0.93185,0.7203294 1.093058,1.3039083 l 0.0531,0.1922362 V 8 13.306931 l -0.0531,0.192236 c -0.161208,0.583579 -0.553018,1.050969 -1.093058,1.303908 -0.218092,0.102148 -0.416073,0.15407 -0.67562,0.177186 -0.259411,0.0231 -10.0892279,0.02214 -10.3492656,-0.001 z M 13.009901,8 V 3 H 8 2.990099 v 5 5 H 8 13.009901 Z"
     id="path2" />
</svg>
